<svg xmlns="http://www.w3.org/2000/svg" version="1.1" xmlns:xlink="http://www.w3.org/1999/xlink" xmlns:svgjs="http://svgjs.dev/svgjs" width="1500" height="840" viewBox="0 0 1500 840"><g transform="matrix(1,0,0,1,-0.9084522071641459,0.6295366880507913)"><svg viewBox="0 0 396 222" data-background-color="#2e2787" preserveAspectRatio="xMidYMid meet" height="840" width="1500" xmlns="http://www.w3.org/2000/svg" xmlns:xlink="http://www.w3.org/1999/xlink"><g id="tight-bounds" transform="matrix(1,0,0,1,0.24008861730862918,-0.16628071156958413)"><svg viewBox="0 0 395.52 222.33265826484018" height="222.33265826484018" width="395.52"><g><svg viewBox="0 0 395.52 222.33265826484018" height="222.33265826484018" width="395.52"><g><svg viewBox="0 0 395.52 222.33265826484018" height="222.33265826484018" width="395.52"><g id="textblocktransform"><svg viewBox="0 0 395.52 222.33265826484018" height="222.33265826484018" width="395.52" id="textblock"><g><svg viewBox="0 0 395.52 222.33265826484018" height="222.33265826484018" width="395.52"><path d="M394.594 47.686C392.735 24.608 387.435 18.192 387.435 18.192 371.165-5.578 350.86-0.455 332.619 2.961 300.414 3.099 268.339 8.176 236.208 10.9 168.767 11.315 100.749 4.484 33.643 21.331 27.339 26.5-6.54 22.346 1.121 50.64 3.129 62.41 10.456 75.472 10.232 86.273 11.236 88.165 12.631 83.826 13.226 86.55 15.309 93.888 18.711 90.427 21.501 94.765 17.614 106.351 20.403 115.997 23.062 126.105 18.377 128.736 12.371 127.49 9.675 136.214 9.396 142.537 7.89 141.337 6.235 141.06 5.026 140.875 2.59 141.568 2.999 143.552 4.394 150.337-1.594 154.261 2.162 160.907-0.422 168.107 3.948 174.338 3.353 182.139 3.278 183.708 3.687 185.047 4.338 185.416 7.22 187.401 3.018 191.278 3.464 195.478 33.029 224.187 65.104 204.34 95.394 217.541 103.259 208.309 97.346 220.818 100.489 218.879 102.943 216.617 104.728 225.987 107.499 220.679 107.927 219.156 107.276 215.556 108.8 216.248 109.6 216.617 110.307 216.525 110.418 214.402 110.586 211.217 109.117 213.202 108.726 211.54 112.947 203.14 111.906 223.125 115.866 222.295 115.68 219.848 114.528 216.341 116.889 216.802 119.232 213.294 119.306 210.386 121.389 218.279 121.463 219.987 121.835 221.187 122.43 222.018 128.938 213.433 135.409 225.064 142.233 221.187 146.417 216.941 150.433 223.495 154.672 221.879 156.16 220.587 157.666 218.279 159.098 222.156 176.632 222.987 195.319 219.525 211.943 222.295 256.364 217.125 303.836 224.418 350.674 217.587 361.719 214.956 373.192 211.217 383.958 208.217 383.958 208.217 392.679 200.001 392.679 163.076S394.538 130.767 394.817 101.366C395.096 71.964 396.398 70.764 394.538 47.686Z" opacity="1" fill="#ffffff" data-fill-palette-color="tertiary"></path><g transform="matrix(1,0,0,1,55.76832,26.230666666666668)"><svg width="283.98335999999995" viewBox="0.75 -40.9 87.59 52.4" height="169.87132493150685" data-palette-color="#2e2787"><path d="M8.9-21.3Q8.9-19.03 7.99-17.6 7.08-16.18 5.13-15.63L5.13-15.63Q7.08-15.05 7.99-13.64 8.9-12.23 8.9-9.95L8.9-9.95 8.9 3.85Q8.9 6.1 10.01 7.19 11.13 8.28 13.4 8.28L13.4 8.28 16.43 8.28 16.43 11.23Q14.78 11.5 13.03 11.5L13.03 11.5Q9.1 11.5 7.1 9.53 5.1 7.55 5.1 3.68L5.1 3.68 5.1-10.15Q5.1-12.1 4.1-13.06 3.1-14.03 1.23-14.03L1.23-14.03 0.75-14.03 0.75-17.2 1.23-17.2Q3.1-17.2 4.1-18.18 5.1-19.15 5.1-21.1L5.1-21.1 5.1-33.08Q5.1-36.95 7.1-38.93 9.1-40.9 13.03-40.9L13.03-40.9Q14.78-40.9 16.43-40.63L16.43-40.63 16.43-37.68 13.4-37.68Q11.13-37.68 10.01-36.59 8.9-35.5 8.9-33.25L8.9-33.25 8.9-21.3ZM43.77 0L39.55 0 29.02-15.38Q27.97-15.3 26.82-15.3L26.82-15.3Q24.77-15.3 22.9-15.43L22.9-15.43 22.9 0 19.1 0 19.1-36.58Q21.32-36.98 23.35-37.19 25.37-37.4 27.65-37.4L27.65-37.4Q34.3-37.4 37.59-34.66 40.87-31.93 40.87-26.48L40.87-26.48Q40.9-22.33 38.82-19.68 36.75-17.03 32.75-15.98L32.75-15.98 43.77 0ZM26.72-18.5Q32.15-18.5 34.66-20.41 37.17-22.33 37.17-26.43L37.17-26.43Q37.17-30.4 34.96-32.29 32.75-34.18 27.9-34.18L27.9-34.18Q25.22-34.18 22.9-33.77L22.9-33.77 22.9-18.65Q25.1-18.5 26.72-18.5L26.72-18.5ZM72.82 0L68.59 0 58.07-15.38Q57.02-15.3 55.87-15.3L55.87-15.3Q53.82-15.3 51.95-15.43L51.95-15.43 51.95 0 48.15 0 48.15-36.58Q50.37-36.98 52.4-37.19 54.42-37.4 56.7-37.4L56.7-37.4Q63.34-37.4 66.63-34.66 69.92-31.93 69.92-26.48L69.92-26.48Q69.95-22.33 67.87-19.68 65.8-17.03 61.8-15.98L61.8-15.98 72.82 0ZM55.77-18.5Q61.2-18.5 63.71-20.41 66.22-22.33 66.22-26.43L66.22-26.43Q66.22-30.4 64.01-32.29 61.8-34.18 56.95-34.18L56.95-34.18Q54.27-34.18 51.95-33.77L51.95-33.77 51.95-18.65Q54.15-18.5 55.77-18.5L55.77-18.5ZM87.84-17.2L88.34-17.2 88.34-14.03 87.84-14.03Q85.97-14.03 84.98-13.06 83.99-12.1 83.99-10.15L83.99-10.15 83.99 3.68Q83.99 7.55 81.98 9.53 79.97 11.5 76.04 11.5L76.04 11.5Q74.27 11.5 72.67 11.23L72.67 11.23 72.67 8.28 75.67 8.28Q77.97 8.28 79.08 7.19 80.19 6.1 80.19 3.85L80.19 3.85 80.19-9.95Q80.19-12.23 81.11-13.64 82.02-15.05 83.97-15.63L83.97-15.63Q80.19-16.7 80.19-21.3L80.19-21.3 80.19-33.25Q80.19-35.5 79.08-36.59 77.97-37.68 75.67-37.68L75.67-37.68 72.67-37.68 72.67-40.63Q74.27-40.9 76.04-40.9L76.04-40.9Q79.97-40.9 81.98-38.93 83.99-36.95 83.99-33.08L83.99-33.08 83.99-21.1Q83.99-19.15 84.98-18.18 85.97-17.2 87.84-17.2L87.84-17.2Z" opacity="1" transform="matrix(1,0,0,1,0,0)" fill="#2e2787" class="wordmark-text-0" data-fill-palette-color="quaternary" id="text-0"></path></svg></g></svg></g></svg></g></svg></g><g></g></svg></g><defs></defs></svg><rect width="395.52" height="222.33265826484018" fill="none" stroke="none" visibility="hidden"></rect></g></svg></g></svg>